<svg id="Layer_3" data-name="Layer 3" xmlns="http://www.w3.org/2000/svg" xmlns:xlink="http://www.w3.org/1999/xlink" viewBox="0 0 790.34 322.4"><defs><style>.cls-1{fill:url(#linear-gradient);}.cls-2{fill:url(#linear-gradient-2);}.cls-3{fill:url(#linear-gradient-3);}.cls-4{fill:url(#linear-gradient-4);}.cls-5{fill:url(#linear-gradient-5);}.cls-6{fill:url(#linear-gradient-6);}.cls-7{fill:url(#linear-gradient-7);}.cls-8{fill:url(#linear-gradient-8);}.cls-9{fill:url(#linear-gradient-9);}.cls-10{fill:url(#linear-gradient-10);}.cls-11{fill:url(#linear-gradient-11);}.cls-12{fill:url(#linear-gradient-12);}.cls-13{fill:url(#linear-gradient-13);}.cls-14{fill:url(#linear-gradient-14);}.cls-15{fill:url(#linear-gradient-15);}.cls-16{fill:url(#linear-gradient-16);}.cls-17{fill:url(#linear-gradient-17);}.cls-18{fill:url(#linear-gradient-18);}.cls-19{fill:url(#linear-gradient-19);}.cls-20{fill:url(#linear-gradient-20);}.cls-21{fill:url(#linear-gradient-21);}</style><linearGradient id="linear-gradient" x1="168.39" y1="411.53" x2="168.39" y2="89.17" gradientUnits="userSpaceOnUse"><stop offset="0" stop-color="#c60018"/><stop offset="1" stop-color="#fc0321"/></linearGradient><linearGradient id="linear-gradient-2" x1="61.65" y1="340.69" x2="61.65" y2="174.21" xlink:href="#linear-gradient"/><linearGradient id="linear-gradient-3" x1="275.59" y1="340.74" x2="275.59" y2="174.22" xlink:href="#linear-gradient"/><linearGradient id="linear-gradient-4" x1="420.7" y1="296.79" x2="420.7" y2="89.14" xlink:href="#linear-gradient"/><linearGradient id="linear-gradient-5" x1="648.11" y1="296.89" x2="648.11" y2="89.13" xlink:href="#linear-gradient"/><linearGradient id="linear-gradient-6" x1="503.49" y1="296.79" x2="503.49" y2="180.94" xlink:href="#linear-gradient"/><linearGradient id="linear-gradient-7" x1="730.43" y1="296.9" x2="730.43" y2="180.96" xlink:href="#linear-gradient"/><linearGradient id="linear-gradient-8" x1="306.55" y1="393.62" x2="306.55" y2="340.03" xlink:href="#linear-gradient"/><linearGradient id="linear-gradient-9" x1="338.81" y1="393.62" x2="338.81" y2="354.16" xlink:href="#linear-gradient"/><linearGradient id="linear-gradient-10" x1="368.04" y1="394.49" x2="368.04" y2="354.16" xlink:href="#linear-gradient"/><linearGradient id="linear-gradient-11" x1="415.17" y1="393.62" x2="415.17" y2="354.16" xlink:href="#linear-gradient"/><linearGradient id="linear-gradient-12" x1="453.98" y1="393.62" x2="453.98" y2="338.22" xlink:href="#linear-gradient"/><linearGradient id="linear-gradient-13" x1="483.24" y1="394.49" x2="483.24" y2="355.03" xlink:href="#linear-gradient"/><linearGradient id="linear-gradient-14" x1="532.29" y1="393.62" x2="532.29" y2="354.16" xlink:href="#linear-gradient"/><linearGradient id="linear-gradient-15" x1="587.4" y1="394.49" x2="587.4" y2="340.43" xlink:href="#linear-gradient"/><linearGradient id="linear-gradient-16" x1="621.64" y1="394.49" x2="621.64" y2="354.16" xlink:href="#linear-gradient"/><linearGradient id="linear-gradient-17" x1="665.06" y1="393.62" x2="665.06" y2="355.03" xlink:href="#linear-gradient"/><linearGradient id="linear-gradient-18" x1="708" y1="394.49" x2="708" y2="354.16" xlink:href="#linear-gradient"/><linearGradient id="linear-gradient-19" x1="735.25" y1="393.62" x2="735.25" y2="337.59" xlink:href="#linear-gradient"/><linearGradient id="linear-gradient-20" x1="758.92" y1="393.62" x2="758.92" y2="354.16" xlink:href="#linear-gradient"/><linearGradient id="linear-gradient-21" x1="789.74" y1="411.06" x2="789.74" y2="355.03" xlink:href="#linear-gradient"/></defs><g id="LOGO"><path id="CENTER" class="cls-1" d="M212.55,92V364.27a2.81,2.81,0,0,1-.74,1.92l-40.87,44.43a2.83,2.83,0,0,1-4.17,0L125,365.31a2.79,2.79,0,0,1-.75-1.92V92a2.84,2.84,0,0,1,2.83-2.84h11.71A2.84,2.84,0,0,1,141.61,92V356.64a2.85,2.85,0,0,0,.76,1.94l12.77,13.62a2.83,2.83,0,0,0,4.9-1.93V136.17a2.84,2.84,0,0,1,2.83-2.84h11.6a2.84,2.84,0,0,1,2.84,2.84v234a2.84,2.84,0,0,0,4.91,1.93l12.41-13.37a2.81,2.81,0,0,0,.76-1.93V92a2.84,2.84,0,0,1,2.84-2.84h11.49A2.84,2.84,0,0,1,212.55,92Z" transform="translate(-16.93 -89.13)"/><path id="LEFT" class="cls-2" d="M103.53,232H90.88a2.83,2.83,0,0,0-2.83,2.83V291.4a2.83,2.83,0,0,1-4.92,1.92L40.29,246.83A2.83,2.83,0,0,1,40,243.3l34-49.54a2.85,2.85,0,0,1,2.34-1.23h27.15a2.84,2.84,0,0,0,2.84-2.84V177a2.84,2.84,0,0,0-2.84-2.83H67a2.84,2.84,0,0,0-2.35,1.24L17.42,245a2.85,2.85,0,0,0,.26,3.51l83.77,91.29a2.83,2.83,0,0,0,4.92-1.91v-103A2.84,2.84,0,0,0,103.53,232Z" transform="translate(-16.93 -89.13)"/><path id="RIGHT" class="cls-3" d="M230.41,337.9v-103a2.84,2.84,0,0,1,2.84-2.84h12.17a2.84,2.84,0,0,1,2.84,2.84v57.89a2.84,2.84,0,0,0,4.92,1.92l44.25-47.92a2.83,2.83,0,0,0,.25-3.53l-34.07-49.45a2.83,2.83,0,0,0-2.33-1.23h-28a2.84,2.84,0,0,1-2.84-2.83V177.05a2.84,2.84,0,0,1,2.84-2.83H270.7a2.81,2.81,0,0,1,2.34,1.24L320.28,245a2.85,2.85,0,0,1-.26,3.52l-84.69,91.35A2.84,2.84,0,0,1,230.41,337.9Z" transform="translate(-16.93 -89.13)"/></g><g id="L"><path id="L1" class="cls-4" d="M363.23,294V92a2.82,2.82,0,0,1,4.82-2l26.19,26.14a2.83,2.83,0,0,1,.83,2V261.66a2.83,2.83,0,0,0,2.83,2.82h51.25a2.84,2.84,0,0,1,2,.85L477.37,292a2.82,2.82,0,0,1-2,4.8H366.05A2.82,2.82,0,0,1,363.23,294Z" transform="translate(-16.93 -89.13)"/><path id="L2" class="cls-5" d="M590.33,294V92a2.83,2.83,0,0,1,4.83-2L621.4,116.2a2.83,2.83,0,0,1,.83,2V261.66a2.82,2.82,0,0,0,2.82,2.83h51.26a2.83,2.83,0,0,1,2,.83l26.75,26.75a2.82,2.82,0,0,1-2,4.82l-109.9-.09A2.84,2.84,0,0,1,590.33,294Z" transform="translate(-16.93 -89.13)"/></g><g id="I"><path id="I1" class="cls-6" d="M487.33,294V183.77a2.82,2.82,0,0,1,4.82-2l26.68,26.62a2.83,2.83,0,0,1,.83,2V294a2.83,2.83,0,0,1-2.83,2.82H490.16A2.83,2.83,0,0,1,487.33,294Z" transform="translate(-16.93 -89.13)"/><path id="I2" class="cls-7" d="M714.5,294.07V183.79a2.83,2.83,0,0,1,4.83-2L745.52,208a2.83,2.83,0,0,1,.83,2v84.08a2.83,2.83,0,0,1-2.83,2.83H717.33A2.83,2.83,0,0,1,714.5,294.07Z" transform="translate(-16.93 -89.13)"/></g><path class="cls-8" d="M290,341.14a73.86,73.86,0,0,1,14-1.11c6.41,0,11,1.42,14.05,4.26a16.61,16.61,0,0,1,4.91,12.32c0,5.21-1.5,9.62-4.23,12.62-3.54,3.87-8.79,5.61-14.93,5.61a22.41,22.41,0,0,1-3.55-.24v19H290Zm10.3,24.15a14.19,14.19,0,0,0,3.48.31c5.52,0,8.93-3.23,8.93-8.68,0-4.89-2.93-7.81-8.11-7.81a15.71,15.71,0,0,0-4.3.47Z" transform="translate(-16.93 -89.13)"/><path class="cls-9" d="M328.72,367.73c0-5.68-.14-9.39-.28-12.7h8.94l.34,7.1H338c1.71-5.6,5.8-8,9-8a9.14,9.14,0,0,1,2.18.16v11.36a9.33,9.33,0,0,0-2.8-.39,6.89,6.89,0,0,0-7.09,6.07,16,16,0,0,0-.21,2.69v19.57H328.72Z" transform="translate(-16.93 -89.13)"/><path class="cls-10" d="M362.07,378.15c.34,5,4.57,7.34,9.41,7.34a25.61,25.61,0,0,0,9.21-1.58l1.37,8.13A29,29,0,0,1,370,394.49c-11.32,0-17.8-7.66-17.8-19.73,0-9.79,5.25-20.6,16.85-20.6,10.77,0,14.87,9.71,14.87,19.26a33.84,33.84,0,0,1-.34,4.73Zm12.21-8.21c0-2.92-1.09-7.81-5.87-7.81-4.36,0-6.13,4.58-6.41,7.81Z" transform="translate(-16.93 -89.13)"/><path class="cls-11" d="M390.11,367.34c0-4.81-.14-8.92-.28-12.31h8.73l.48,5.21h.21a11.31,11.31,0,0,1,10.09-6.08,9.46,9.46,0,0,1,9.14,6.55h.14a15.08,15.08,0,0,1,4.29-4.66,10.82,10.82,0,0,1,6.35-1.89c6.41,0,11.25,5.21,11.25,16.73v22.73H430.42v-21c0-5.61-1.57-8.84-4.92-8.84-2.38,0-4.09,1.89-4.77,4.18a11.62,11.62,0,0,0-.41,3.08v22.57H410.23V372c0-4.9-1.5-8.21-4.78-8.21-2.66,0-4.23,2.37-4.84,4.34a9.13,9.13,0,0,0-.41,3v22.49H390.11Z" transform="translate(-16.93 -89.13)"/><path class="cls-12" d="M459.47,344.29c0,3.32-2.18,6-5.59,6s-5.46-2.68-5.39-6c-.07-3.47,2.12-6.07,5.46-6.07S459.41,340.82,459.47,344.29Zm-10.7,49.33V355h10.36v38.59Z" transform="translate(-16.93 -89.13)"/><path class="cls-13" d="M498.9,381.23c0,5,.13,9.15.27,12.39h-9l-.48-5.45h-.2a11.68,11.68,0,0,1-10.44,6.32c-6.75,0-11.73-4.9-11.73-16.81V355h10.43v20.75c0,5.61,1.57,9,5.19,9,2.86,0,4.5-2.29,5.18-4.18a7.76,7.76,0,0,0,.34-2.61V355H498.9Z" transform="translate(-16.93 -89.13)"/><path class="cls-14" d="M507.22,367.34c0-4.81-.14-8.92-.27-12.31h8.73l.48,5.21h.2a11.32,11.32,0,0,1,10.1-6.08,9.46,9.46,0,0,1,9.13,6.55h.14a15.23,15.23,0,0,1,4.3-4.66,10.81,10.81,0,0,1,6.34-1.89c6.41,0,11.26,5.21,11.26,16.73v22.73h-10.1v-21c0-5.61-1.57-8.84-4.91-8.84-2.39,0-4.09,1.89-4.77,4.18a11.22,11.22,0,0,0-.41,3.08v22.57h-10.1V372c0-4.9-1.5-8.21-4.77-8.21-2.66,0-4.23,2.37-4.85,4.34a9.12,9.12,0,0,0-.4,3v22.49h-10.1Z" transform="translate(-16.93 -89.13)"/><path class="cls-15" d="M589,340.43h10.37v33.62c0,15.15-6.27,20.44-16.37,20.44a23.66,23.66,0,0,1-7.57-1.27l1.16-9.7a15,15,0,0,0,5.32.94c4.37,0,7.09-2.28,7.09-10.57Z" transform="translate(-16.93 -89.13)"/><path class="cls-16" d="M615.67,378.15c.34,5,4.57,7.34,9.42,7.34a25.59,25.59,0,0,0,9.2-1.58l1.37,8.13a28.92,28.92,0,0,1-12.07,2.45c-11.33,0-17.81-7.66-17.81-19.73,0-9.79,5.26-20.6,16.85-20.6,10.78,0,14.87,9.71,14.87,19.26a32.34,32.34,0,0,1-.34,4.73Zm12.21-8.21c0-2.92-1.09-7.81-5.86-7.81-4.37,0-6.14,4.58-6.41,7.81Z" transform="translate(-16.93 -89.13)"/><path class="cls-17" d="M650.46,355l2.66,15.78c.68,3.95,1.37,8.29,1.91,12.71h.14c.68-4.42,1.64-8.84,2.45-12.63L661.17,355h8.19l3.34,15.39c.88,4.34,1.77,8.68,2.45,13.1h.14c.48-4.42,1.16-8.76,1.91-13.18L680.06,355h10.17L680,393.62h-9.76L667.1,380c-.81-3.78-1.43-7.18-2.11-12h-.14a98.4,98.4,0,0,1-2.18,12l-3.34,13.58h-9.75L639.89,355Z" transform="translate(-16.93 -89.13)"/><path class="cls-18" d="M702,378.15c.34,5,4.57,7.34,9.41,7.34a25.65,25.65,0,0,0,9.21-1.58L722,392a28.92,28.92,0,0,1-12.07,2.45c-11.32,0-17.8-7.66-17.8-19.73,0-9.79,5.25-20.6,16.84-20.6,10.78,0,14.87,9.71,14.87,19.26a32.34,32.34,0,0,1-.34,4.73Zm12.21-8.21c0-2.92-1.09-7.81-5.87-7.81-4.36,0-6.14,4.58-6.41,7.81Z" transform="translate(-16.93 -89.13)"/><path class="cls-19" d="M730.06,337.59h10.37v56H730.06Z" transform="translate(-16.93 -89.13)"/><path class="cls-20" d="M748.82,367.73c0-5.68-.14-9.39-.27-12.7h8.93l.34,7.1h.28c1.7-5.6,5.79-8,9-8a9.14,9.14,0,0,1,2.18.16v11.36a9.26,9.26,0,0,0-2.79-.39,6.91,6.91,0,0,0-7.1,6.07,17.14,17.14,0,0,0-.2,2.69v19.57H748.82Z" transform="translate(-16.93 -89.13)"/><path class="cls-21" d="M783.74,355l5,18.94c.55,2.29,1.23,5.13,1.64,7.18h.2c.48-2,1-5,1.5-7.18l4.1-18.94h11.11l-7.77,25.41c-4.78,15.31-8,21.47-11.73,25.33a18,18,0,0,1-10,5.29l-2.18-10.18a12.25,12.25,0,0,0,4.5-2.05,13,13,0,0,0,4.3-4.82,3.43,3.43,0,0,0,.54-1.73,4.92,4.92,0,0,0-.48-2L772.21,355Z" transform="translate(-16.93 -89.13)"/></svg>